<?xml version="1.0" standalone="no"?>
<!DOCTYPE svg PUBLIC "-//W3C//DTD SVG 20010904//EN"
 "http://www.w3.org/TR/2001/REC-SVG-20010904/DTD/svg10.dtd">
<svg version="1.0" xmlns="http://www.w3.org/2000/svg"
 width="632.000000pt" height="682.000000pt" viewBox="0 0 632.000000 682.000000"
 preserveAspectRatio="xMidYMid meet">

<g transform="translate(0.000000,682.000000) scale(0.100000,-0.100000)"
fill="#000000" stroke="none">
<path d="M2725 6810 c-713 -44 -1515 -194 -1842 -345 -186 -86 -305 -167 -452
-309 -121 -117 -203 -227 -276 -368 -16 -31 -33 -54 -37 -52 -4 3 -8 -5 -8
-19 0 -13 -12 -52 -26 -88 -14 -35 -37 -111 -52 -169 l-27 -105 -3 -1710 c-2
-1199 0 -1735 8 -1795 42 -322 175 -589 416 -836 66 -68 226 -194 246 -194 5
0 6 -5 3 -10 -4 -6 -3 -9 2 -8 5 2 30 -8 55 -22 26 -13 49 -22 51 -20 2 3 34
50 72 105 38 55 93 130 122 167 l53 67 -77 52 c-100 66 -145 103 -216 176
-154 158 -255 356 -292 571 -13 77 -15 299 -12 1727 l2 1640 28 100 c70 255
216 458 432 605 95 64 133 82 271 130 287 99 769 191 1296 247 228 24 292 26
648 27 463 1 731 -18 1205 -84 318 -44 705 -130 882 -196 341 -127 559 -369
660 -730 l28 -99 3 -1615 c2 -1115 0 -1644 -8 -1710 -34 -299 -213 -572 -498
-760 -58 -39 -109 -70 -114 -70 -4 0 -8 -4 -8 -8 0 -9 128 -183 164 -222 13
-14 35 -46 50 -72 15 -27 31 -48 36 -48 18 0 125 62 215 125 91 64 246 213
307 295 167 226 254 451 278 725 7 82 10 650 8 1775 l-4 1655 -23 100 c-32
143 -64 236 -122 350 -145 290 -389 527 -692 670 -322 153 -872 264 -1662 336
-250 23 -855 33 -1090 19z"/>
<path d="M4387 5715 c-74 -26 -117 -87 -117 -165 0 -77 59 -156 122 -166 21
-4 42 -12 47 -18 22 -28 142 -600 159 -758 9 -85 8 -88 -51 -162 -87 -111
-118 -202 -147 -430 -36 -287 -74 -431 -155 -603 -60 -127 -170 -293 -194
-293 -7 0 -10 -4 -6 -9 8 -14 -105 -132 -119 -124 -6 3 -8 3 -4 -2 11 -11 -12
-36 -25 -28 -5 3 -7 2 -4 -4 16 -25 -377 -334 -404 -317 -7 4 -9 3 -6 -3 11
-18 -267 -173 -470 -262 -101 -44 -237 -87 -356 -113 -139 -30 -439 -32 -567
-4 -261 56 -441 147 -649 323 -49 42 -67 52 -89 48 -303 -47 -461 -107 -605
-229 -49 -42 -112 -114 -105 -121 2 -2 23 2 46 10 64 22 198 29 293 16 110
-16 258 -67 440 -151 148 -69 313 -128 437 -156 93 -21 388 -30 493 -15 116
17 174 32 399 106 248 81 339 99 505 99 136 0 339 -32 360 -57 14 -17 54 -42
148 -92 110 -58 196 -90 319 -116 88 -19 122 -21 252 -16 161 6 225 19 364 76
300 122 523 407 596 762 49 239 44 451 -19 734 -56 253 -61 305 -41 385 18 69
70 149 98 150 9 0 18 5 20 11 5 16 50 -4 92 -41 20 -18 33 -37 29 -43 -3 -5
-1 -7 4 -4 6 4 16 0 23 -8 15 -18 61 -20 78 -3 19 19 14 48 -17 87 -44 57 -49
71 -60 175 -5 54 -17 111 -27 129 -9 17 -27 51 -39 75 -22 44 -95 125 -164
180 -28 23 -44 45 -52 75 -19 70 -3 372 37 679 6 44 8 46 51 58 87 25 142 129
114 218 -25 83 -118 142 -198 127 -36 -6 -125 -50 -118 -57 3 -2 -4 -22 -15
-43 -41 -81 -10 -181 73 -238 16 -11 16 -19 -7 -157 -42 -245 -93 -480 -118
-542 -9 -25 -16 -28 -55 -28 -24 0 -64 -5 -89 -11 -43 -11 -46 -10 -76 17 -56
54 -133 230 -243 557 l-54 158 23 10 c29 14 74 83 82 127 14 73 -36 159 -111
193 -47 22 -77 23 -128 4z"/>
<path d="M2430 5476 c-303 -42 -588 -162 -812 -342 -37 -30 -71 -54 -77 -54
-5 0 -11 -4 -13 -10 -1 -5 -37 -44 -78 -87 -100 -103 -147 -162 -208 -259
-270 -433 -325 -924 -156 -1400 28 -78 48 -101 33 -36 -17 70 -22 296 -10 458
12 144 37 317 40 270 2 -29 129 -470 157 -546 44 -118 164 -345 224 -426 178
-237 424 -400 689 -456 123 -27 329 -28 446 -4 247 52 442 160 626 346 388
395 469 978 199 1440 -149 256 -414 463 -695 545 -275 80 -550 69 -809 -31
-91 -35 -206 -94 -238 -121 -9 -8 -22 -12 -28 -8 -6 3 -9 2 -8 -3 3 -10 -126
-112 -142 -112 -6 0 -9 -4 -6 -9 4 -5 -6 -20 -22 -33 -52 -44 -162 -182 -209
-260 -25 -43 -48 -77 -50 -74 -5 5 30 93 66 163 184 365 637 643 1053 647 60
1 108 4 108 8 0 13 -174 69 -234 75 -52 6 -57 8 -33 14 16 4 79 13 140 19 175
17 327 -1 486 -59 95 -35 200 -91 235 -126 13 -13 27 -21 30 -18 3 4 6 -2 6
-12 0 -10 3 -15 7 -12 9 10 43 -23 43 -42 0 -13 2 -13 9 -2 7 11 9 11 14 0 3
-8 6 -4 6 9 1 13 -20 67 -46 120 -26 54 -50 101 -52 106 -8 18 131 -98 175
-147 72 -80 100 -125 221 -356 33 -63 33 -63 33 -28 0 19 -7 70 -15 113 -8 43
-12 80 -9 83 17 17 191 -211 266 -349 81 -148 151 -352 178 -525 18 -109 15
-399 -4 -460 -8 -27 -13 -51 -11 -54 12 -11 116 131 154 209 30 62 86 215 100
274 19 78 25 262 12 360 -65 483 -494 960 -1018 1132 -180 59 -277 75 -488 79
-125 3 -223 0 -285 -9z m190 -1090 c112 -31 255 -115 329 -194 59 -63 128
-171 156 -243 36 -91 51 -231 36 -332 -17 -113 -29 -150 -75 -239 -65 -122
-130 -194 -238 -265 -172 -112 -347 -145 -543 -104 -151 32 -248 85 -361 196
-155 153 -224 299 -232 491 -5 131 6 192 52 289 94 198 274 339 508 400 79 21
109 24 203 20 61 -2 135 -11 165 -19z"/>
<path d="M2330 4209 c-84 -14 -205 -78 -274 -146 -98 -97 -154 -242 -143 -373
5 -59 31 -147 47 -160 3 -3 22 -27 41 -54 81 -115 190 -189 321 -217 85 -19
230 -6 312 27 76 30 194 121 234 181 107 158 88 420 -42 567 -14 16 -23 33
-19 39 3 6 1 7 -5 3 -7 -4 -26 6 -44 23 -47 44 -142 89 -223 106 -77 16 -123
17 -205 4z m204 -381 c93 -77 88 -199 -11 -258 -52 -31 -95 -34 -145 -12 -119
52 -132 212 -24 277 62 37 130 35 180 -7z"/>
<path d="M1370 961 c-84 -27 -130 -77 -130 -139 0 -111 120 -198 419 -307 133
-48 164 -67 159 -99 -3 -19 -10 -21 -83 -20 -117 0 -304 67 -374 132 -29 28
-32 37 -27 66 l6 33 -80 23 c-48 14 -84 19 -89 14 -5 -5 -22 -57 -38 -117
l-30 -107 36 -10 c20 -5 58 -16 86 -24 34 -11 51 -12 56 -5 4 7 31 -2 74 -25
126 -67 386 -136 511 -136 85 0 146 20 188 61 38 38 38 40 34 102 -8 125 -64
166 -415 301 -143 55 -178 78 -163 107 8 14 21 19 54 19 59 0 205 -43 293 -86
83 -40 117 -75 111 -116 -4 -26 -1 -29 36 -39 23 -5 54 -14 70 -19 58 -20 61
-17 93 98 17 59 29 108 28 110 -1 1 -32 11 -68 21 -36 11 -74 22 -86 26 -17 5
-21 2 -21 -14 0 -26 -7 -26 -45 0 -63 42 -188 100 -272 125 -93 27 -283 42
-333 25z"/>
<path d="M4703 936 c-141 -27 -284 -86 -388 -160 -55 -40 -65 -43 -65 -21 0
20 -13 19 -102 -11 l-76 -25 35 -107 c20 -59 37 -109 39 -110 1 -2 41 9 87 24
83 27 85 28 76 52 -24 63 105 149 311 208 95 27 140 23 140 -15 0 -25 -36 -46
-200 -117 -176 -76 -253 -119 -306 -172 -72 -72 -81 -161 -22 -228 36 -41 79
-54 180 -54 138 0 416 86 537 166 35 23 56 32 60 25 5 -7 32 -3 87 15 43 15
81 28 83 30 8 7 -72 224 -83 224 -7 0 -43 -11 -82 -24 l-69 -23 3 -36 c2 -29
-3 -42 -31 -69 -100 -100 -413 -195 -450 -136 -19 29 17 53 172 119 263 110
391 211 391 310 0 40 -32 89 -74 113 -53 31 -156 40 -253 22z"/>
<path d="M2966 694 c-206 -45 -332 -163 -344 -324 -14 -198 104 -320 348 -356
163 -25 342 -6 419 43 23 15 26 14 46 -11 18 -23 28 -26 83 -26 l62 0 0 160 0
160 -175 0 -175 0 0 -60 0 -60 65 0 c64 0 65 -1 54 -21 -21 -40 -94 -63 -199
-63 -113 0 -165 19 -222 82 -41 46 -53 87 -46 168 6 67 43 117 114 153 39 20
68 26 144 29 116 5 193 -19 253 -78 31 -31 37 -45 37 -79 l0 -41 75 0 75 0 0
160 0 160 -70 0 c-68 0 -70 -1 -70 -25 0 -30 -9 -31 -60 -5 -96 49 -275 63
-414 34z"/>
</g>
</svg>
